<?xml version="1.0" standalone="no"?>
<!DOCTYPE svg PUBLIC "-//W3C//DTD SVG 20010904//EN"
 "http://www.w3.org/TR/2001/REC-SVG-20010904/DTD/svg10.dtd">
<svg version="1.0" xmlns="http://www.w3.org/2000/svg"
 width="2095.000000pt" height="3143.000000pt" viewBox="0 0 2095.000000 3143.000000"
 preserveAspectRatio="xMidYMid meet">
<metadata>
Created by potrace 1.15, written by Peter Selinger 2001-2017
</metadata>
<g transform="translate(0.000000,3143.000000) scale(0.100000,-0.100000)"
fill="#000000" stroke="none">
<path d="M2 31194 c3 -200 5 -238 18 -242 13 -5 13 -3 1 12 -12 14 -12 18 5
31 10 8 25 15 32 15 16 0 16 17 0 23 -12 5 16 11 35 8 4 0 7 6 7 14 0 9 12 27
26 40 14 13 27 35 28 49 2 37 14 21 13 -19 -1 -21 -4 -30 -9 -22 -5 8 -8 5 -8
-10 0 -12 -4 -25 -10 -28 -5 -3 -10 -13 -10 -22 0 -12 7 -9 26 11 15 14 31 26
35 26 5 0 9 7 9 15 0 8 -5 15 -12 15 -9 0 -9 3 0 12 8 8 15 8 27 -2 30 -25
115 -18 115 10 0 7 -9 5 -22 -4 -12 -9 -28 -16 -35 -16 -15 0 -43 28 -43 42 0
6 3 8 7 5 3 -4 12 -2 20 5 7 6 17 8 20 4 4 -4 1 -11 -7 -16 -8 -5 -11 -12 -8
-15 4 -4 16 2 28 13 14 13 18 22 11 27 -6 3 -11 15 -11 27 0 16 3 18 13 10 20
-17 79 -19 84 -4 3 6 -2 12 -11 12 -9 0 -16 5 -16 10 0 12 20 13 38 2 14 -10
6 -42 -12 -42 -6 0 -4 -4 4 -10 26 -16 4 -21 -26 -5 -34 18 -44 19 -44 4 0 -5
16 -17 36 -25 41 -17 54 -9 54 34 0 15 5 22 13 19 6 -2 11 -11 9 -21 -2 -9 1
-16 6 -16 14 0 23 28 11 35 -5 4 -6 11 -3 17 5 7 12 4 21 -8 13 -17 14 -14 9
31 -4 35 -3 43 3 25 5 -14 9 -19 10 -12 2 24 21 11 22 -15 l1 -28 10 28 c10
27 28 37 28 15 0 -6 3 -8 6 -5 4 4 1 14 -7 24 -12 14 -12 16 0 8 11 -6 13 -2
9 18 -3 15 -1 24 3 21 5 -3 9 -12 9 -20 0 -8 9 -14 21 -14 16 0 19 4 14 20 -3
11 -2 20 3 20 5 0 12 -8 14 -18 4 -14 13 -17 47 -14 38 4 60 22 26 22 -8 0
-15 5 -15 11 0 5 4 8 9 4 5 -3 16 2 24 10 18 18 28 19 25 4 -2 -6 3 -14 10
-16 8 -3 12 6 13 29 0 32 1 32 10 8 9 -22 12 -23 23 -8 9 12 16 14 29 6 23
-13 47 6 47 37 l0 23 -436 1 -435 2 3 -237z"/>
<path d="M11335 24616 l30 -25 -25 -10 c-14 -5 -18 -10 -10 -11 9 -1 5 -5 -9
-11 -13 -5 -33 -7 -43 -3 -14 4 -29 -5 -56 -34 -20 -21 -47 -44 -59 -51 -13
-6 -23 -19 -23 -27 0 -8 -12 -25 -27 -38 -22 -19 -25 -26 -15 -38 15 -18 6
-28 -26 -28 -18 0 -23 -4 -18 -15 3 -9 -1 -18 -9 -21 -12 -5 -11 -9 6 -23 20
-16 20 -16 -8 -47 -36 -39 -66 -92 -59 -102 3 -5 -15 -60 -40 -123 -25 -63
-52 -134 -61 -159 -8 -25 -26 -66 -39 -92 -34 -66 -75 -239 -78 -323 -2 -39
-8 -81 -15 -94 -11 -20 -38 -134 -71 -293 -11 -57 -36 -107 -55 -114 -8 -3
-105 1 -217 10 -141 10 -217 12 -248 5 -25 -5 -76 -14 -115 -19 -52 -8 -83
-19 -120 -44 -33 -22 -60 -33 -80 -31 -21 1 -40 -8 -62 -28 -18 -17 -38 -27
-47 -24 -8 3 -17 1 -20 -6 -2 -7 -5 -5 -5 4 -1 9 -7 19 -14 22 -10 4 -13 -2
-9 -18 3 -19 1 -23 -15 -19 -27 7 -47 -34 -39 -80 10 -53 -5 -73 -54 -73 -22
0 -43 4 -46 8 -3 5 2 9 10 9 9 0 16 5 16 11 0 7 8 18 17 25 10 7 15 16 11 20
-5 4 -17 -1 -28 -11 -32 -29 -70 1 -39 32 8 8 4 21 -16 47 -28 36 -63 50 -51
20 4 -10 -3 -18 -24 -26 -35 -12 -38 -28 -10 -53 24 -21 75 -127 85 -172 8
-37 -3 -99 -15 -86 -4 4 -13 25 -20 46 -13 41 -50 71 -50 40 0 -10 5 -38 11
-62 5 -24 8 -46 5 -48 -12 -13 -60 96 -71 162 -6 32 -19 55 -36 60 -22 7 -24
16 -7 33 10 10 10 15 -2 22 -8 5 -17 7 -20 5 -3 -2 -23 9 -45 24 -28 19 -40
34 -40 52 -1 19 -5 23 -23 21 -15 -2 -22 2 -22 12 0 26 34 18 66 -14 33 -33
63 -38 100 -13 18 11 24 23 22 42 -1 14 1 31 4 36 10 16 -54 16 -72 0 -22 -20
-140 -28 -133 -9 12 32 -116 113 -202 129 -22 3 -54 15 -71 26 -27 16 -41 18
-105 11 l-74 -7 -25 -64 c-14 -34 -39 -79 -56 -99 l-30 -36 -56 24 c-50 20
-60 22 -88 10 -29 -12 -100 -84 -100 -102 0 -4 -31 -72 -69 -150 -38 -79 -72
-152 -75 -163 -6 -16 -9 -17 -16 -5 -10 17 -7 25 -55 -117 -19 -54 -40 -99
-47 -101 -9 -2 -8 0 1 6 12 9 12 13 2 26 -7 8 -10 20 -6 26 3 5 1 10 -5 10 -8
0 -10 16 -6 53 11 110 12 162 2 169 -7 4 -6 15 3 31 7 14 10 34 6 46 -5 15 -3
19 8 16 14 -6 37 32 37 61 0 9 -14 30 -32 47 -17 18 -29 25 -26 16 6 -16 -10
-29 -54 -43 -23 -7 -33 11 -18 29 7 8 8 15 3 15 -5 0 -15 -11 -21 -24 -10 -23
-27 -29 -110 -40 -49 -6 -126 -48 -139 -76 -16 -35 -33 -180 -33 -284 0 -71 3
-91 17 -101 15 -11 15 -16 0 -71 -9 -33 -14 -68 -11 -80 3 -12 -2 -30 -13 -43
l-19 -23 -19 61 c-10 34 -22 64 -27 67 -12 7 -10 54 2 54 6 0 10 7 10 15 0 26
-37 -1 -45 -32 -13 -53 -40 -70 -41 -25 -2 60 -4 72 -14 72 -5 0 -10 -9 -10
-20 0 -12 -6 -20 -12 -19 -7 1 -25 -3 -39 -9 -27 -11 -39 -36 -39 -84 0 -30
-51 -79 -59 -57 -2 7 1 15 8 17 9 3 9 7 0 18 -9 11 -15 12 -26 3 -7 -7 -14
-10 -16 -8 -1 2 -11 21 -21 42 -11 21 -30 44 -42 50 -21 11 -24 15 -24 33 0 4
-7 1 -15 -6 -8 -7 -15 -9 -16 -4 -1 5 -2 18 -3 29 -1 14 -9 19 -30 20 -25 0
-30 5 -42 45 -8 25 -12 50 -10 56 6 16 -22 54 -40 54 -17 0 -18 14 -2 40 18
28 5 33 -36 14 -40 -20 -57 -14 -32 11 19 19 21 55 4 55 -7 0 -5 5 4 13 18 14
34 57 21 57 -5 0 -19 -8 -32 -17 -14 -9 -21 -11 -17 -5 19 31 -99 -7 -151 -48
-23 -18 -226 -90 -254 -90 -6 0 -22 -9 -36 -20 l-26 -20 39 -15 c22 -9 48 -21
59 -27 11 -6 33 -19 49 -27 16 -9 41 -27 56 -41 14 -14 35 -30 46 -36 10 -6
24 -21 30 -32 6 -12 14 -19 17 -15 8 8 47 -31 47 -47 0 -5 7 -10 15 -10 17 0
19 -9 5 -30 -8 -13 -10 -12 -10 3 0 9 -6 17 -13 17 -8 0 -18 10 -24 23 -6 12
-31 32 -56 45 -24 12 -51 29 -58 38 -20 24 -169 92 -230 105 -56 11 -99 33
-99 49 0 5 15 13 33 18 17 5 31 14 30 19 -1 5 12 9 30 8 51 -3 145 70 162 126
4 13 18 40 30 59 13 19 29 65 35 102 10 57 9 71 -5 101 -15 31 -49 56 -99 71
-17 6 -18 12 -10 74 21 158 2 229 -78 294 -40 33 -51 37 -142 46 -65 7 -112
18 -140 33 -22 12 -52 28 -65 35 -14 7 -28 11 -31 9 -11 -7 6 -89 19 -93 6 -2
2 -13 -9 -25 -11 -11 -20 -30 -20 -41 0 -12 -12 -55 -25 -96 -25 -71 -26 -81
-20 -240 3 -91 11 -209 16 -262 12 -102 8 -128 -17 -107 -18 15 -18 0 0 -71 8
-30 13 -56 11 -58 -1 -2 -14 0 -27 3 -23 6 -27 16 -48 126 -22 114 -22 120 -6
157 14 31 15 43 6 67 -6 17 -16 127 -22 245 -10 193 -13 217 -31 238 -27 30
-45 28 -90 -9 -35 -29 -41 -48 -23 -77 5 -8 -4 -26 -24 -49 -22 -24 -30 -42
-26 -57 2 -11 8 -93 11 -181 4 -88 11 -176 16 -195 6 -19 17 -60 25 -90 8 -30
12 -65 9 -79 -5 -18 -3 -22 9 -18 10 4 22 -2 30 -16 20 -30 31 -103 18 -111
-21 -13 -62 7 -81 39 -18 31 -23 33 -55 28 -23 -4 -53 1 -82 12 -25 9 -48 15
-51 12 -9 -10 80 -61 180 -102 53 -22 97 -43 97 -47 0 -10 -59 -28 -65 -19 -9
15 -118 62 -131 57 -7 -3 -15 0 -18 7 -2 7 -5 4 -5 -7 -1 -11 -6 -16 -15 -13
-19 8 -26 -25 -9 -42 15 -13 13 -36 -3 -36 -25 -1 -34 -18 -28 -56 l7 -39 -36
0 c-20 0 -48 5 -63 10 -20 8 -29 8 -35 -1 -5 -9 -16 -6 -41 9 -48 30 -74 61
-94 112 -9 25 -25 54 -36 66 -10 11 -18 26 -18 32 0 19 -18 14 -25 -7 -7 -24
14 -76 48 -117 39 -46 53 -113 34 -167 -21 -63 -6 -85 111 -164 28 -19 52 -39
52 -44 0 -18 78 -91 89 -85 7 4 11 -1 11 -13 0 -14 13 -27 38 -40 51 -27 99
-68 90 -77 -4 -4 -13 -2 -20 4 -7 6 -40 26 -73 45 -33 18 -116 68 -185 110
-69 43 -130 77 -137 77 -7 0 2 -25 22 -59 19 -33 35 -64 35 -69 0 -5 12 -22
27 -38 50 -52 93 -118 93 -142 0 -15 -5 -22 -12 -19 -7 2 -33 -7 -57 -20 -24
-12 -51 -23 -60 -23 -10 0 -21 -4 -26 -9 -6 -5 -21 -11 -35 -13 -22 -4 -20 -7
25 -28 28 -13 54 -26 58 -28 5 -2 7 4 5 14 -2 13 4 20 20 22 12 2 22 -1 22 -7
0 -6 9 -11 19 -11 11 0 23 -5 26 -11 4 -6 13 -8 21 -5 8 3 14 -1 14 -10 0 -22
-26 -28 -52 -10 -25 18 -48 21 -48 6 0 -5 11 -12 24 -16 37 -9 62 -40 46 -58
-6 -9 -21 -18 -32 -22 -26 -8 -69 -53 -63 -65 7 -10 -30 -31 -39 -21 -10 9
-26 -19 -26 -46 0 -15 4 -21 11 -16 8 5 10 -4 7 -28 -2 -24 0 -35 10 -35 7 0
11 6 8 12 -6 17 10 39 23 31 6 -4 9 -12 5 -17 -3 -6 0 -9 7 -8 21 3 52 -12 71
-35 18 -21 18 -21 14 9 -2 17 -1 23 1 15 3 -8 10 -21 16 -28 8 -10 7 -16 -4
-23 -12 -7 -11 -9 3 -9 9 0 19 5 21 10 3 6 4 5 3 -2 -2 -10 -32 -13 -114 -13
-62 0 -112 -3 -112 -6 0 -3 55 -13 121 -21 67 -9 124 -20 128 -26 3 -5 38 -11
76 -14 50 -4 83 -13 115 -31 66 -37 154 -60 193 -51 17 4 104 8 192 9 132 1
182 6 288 28 71 15 183 34 250 43 131 16 210 39 297 85 l54 29 23 -24 c28 -31
71 -40 193 -40 91 0 98 2 163 37 71 39 129 48 159 25 8 -7 21 -35 27 -62 14
-56 45 -106 67 -106 8 0 14 -10 14 -23 0 -13 5 -28 11 -34 8 -8 7 -60 -1 -184
-11 -153 -10 -195 6 -349 24 -235 28 -484 9 -575 -8 -38 -26 -133 -40 -210
-14 -77 -33 -167 -42 -200 -38 -148 -89 -477 -103 -659 -14 -188 -95 -557
-144 -655 -31 -62 -115 -270 -166 -411 -23 -63 -50 -128 -60 -145 -45 -75
-134 -264 -146 -310 -8 -27 -14 -88 -14 -134 0 -47 -5 -122 -12 -167 -9 -65
-9 -104 1 -185 20 -160 20 -155 -21 -614 -7 -71 -12 -164 -13 -205 -1 -70 -5
-84 -59 -200 -33 -69 -72 -139 -88 -156 -31 -33 -35 -52 -24 -96 7 -23 5 -27
-25 -33 -80 -18 -175 -86 -219 -157 -18 -29 -48 -76 -67 -105 -49 -74 -66
-134 -50 -181 8 -24 12 -88 11 -177 -2 -152 -5 -164 -77 -310 -64 -130 -108
-267 -127 -390 -6 -38 -26 -135 -45 -215 -48 -202 -101 -490 -120 -650 -8 -74
-20 -169 -25 -210 -6 -41 -13 -113 -16 -160 -3 -47 -21 -182 -41 -300 -19
-119 -39 -282 -43 -365 -5 -82 -14 -178 -21 -213 -24 -117 17 -338 94 -517 64
-147 169 -359 203 -411 19 -28 47 -82 62 -120 16 -38 47 -97 69 -131 22 -33
45 -76 52 -95 7 -18 32 -76 56 -128 24 -52 46 -106 50 -120 10 -34 66 -169
105 -255 18 -38 38 -86 45 -105 29 -78 141 -316 248 -524 120 -235 352 -625
582 -981 68 -104 86 -137 105 -189 11 -29 38 -79 60 -109 21 -31 44 -76 50
-99 14 -51 33 -74 82 -99 39 -20 56 -46 78 -114 7 -22 24 -55 38 -74 21 -29
24 -38 15 -61 -8 -22 -5 -43 14 -101 28 -88 51 -114 112 -132 41 -11 46 -16
47 -42 1 -48 3 -51 28 -63 17 -7 29 -25 36 -52 6 -22 23 -62 39 -88 15 -26 35
-67 45 -92 10 -25 26 -54 37 -66 25 -26 62 -121 50 -128 -5 -3 -37 6 -72 19
-34 14 -64 25 -64 25 -1 0 0 -46 2 -103 5 -112 16 -158 47 -200 25 -34 30
-122 10 -152 -22 -31 -17 -74 15 -114 l29 -36 1 -200 c1 -184 5 -242 17 -302
2 -13 25 -46 50 -74 46 -52 46 -53 40 -107 -4 -30 -11 -62 -16 -72 -5 -10 -7
-39 -4 -64 6 -42 3 -51 -32 -104 -89 -132 -104 -171 -115 -286 -5 -55 -12
-109 -15 -119 -7 -23 -48 -39 -80 -31 -19 5 -31 -1 -59 -32 -19 -21 -35 -44
-35 -52 0 -30 37 -75 81 -97 43 -22 54 -24 175 -19 358 13 391 18 499 69 50
23 110 56 135 73 32 23 47 28 53 19 6 -8 7 -6 3 6 -4 12 5 26 26 45 18 15 43
38 57 51 21 20 27 22 45 11 21 -13 21 -13 2 9 -11 11 -14 21 -8 21 6 0 14 -5
17 -10 8 -13 25 -3 25 13 0 8 -3 8 -9 -2 -6 -10 -10 -10 -16 -1 -4 6 -1 19 7
28 75 90 79 94 73 69 -5 -20 -2 -28 17 -38 12 -6 27 -18 31 -26 10 -17 26 -2
52 47 17 32 17 34 -1 47 -10 7 -13 13 -8 13 6 0 15 -5 21 -11 9 -9 20 5 42 55
17 36 31 74 31 84 0 10 4 22 9 27 16 19 39 131 46 220 8 114 40 300 60 348 16
38 20 65 8 54 -8 -8 -53 32 -53 46 0 6 10 1 23 -11 13 -12 29 -22 36 -22 6 0
0 11 -15 25 -15 14 -31 25 -36 25 -6 0 -18 10 -28 22 -16 20 -16 25 -4 43 8
10 14 27 14 37 0 10 5 18 11 18 5 0 7 4 4 10 -14 23 8 28 41 8 19 -11 38 -18
41 -14 3 3 -3 9 -13 13 -10 4 -28 15 -38 25 -17 16 -18 18 -3 24 9 3 14 10 11
15 -11 18 7 29 29 18 20 -9 20 -9 5 4 -19 15 -25 47 -9 47 5 0 11 -3 13 -7 4
-10 75 -63 83 -63 14 0 -9 22 -46 46 -37 23 -51 44 -28 44 5 0 31 -16 56 -35
l47 -36 12 28 c6 16 8 32 3 38 -14 14 -11 23 9 27 13 3 8 8 -17 21 -38 19 -51
16 -31 -8 15 -18 7 -19 -22 -4 -30 16 -35 2 -7 -22 l24 -21 -25 7 c-14 4 -31
13 -39 21 -13 11 -12 14 2 20 9 3 17 13 17 20 0 17 25 59 52 90 11 12 27 37
37 55 25 46 46 58 67 37 16 -16 16 -17 -4 -11 -16 4 -22 1 -22 -11 0 -9 6 -16
14 -16 7 0 19 -7 26 -15 11 -13 8 -13 -25 1 -42 17 -55 13 -31 -11 22 -22 20
-28 -3 -15 -31 16 -35 12 -17 -15 17 -25 17 -26 -9 -19 -29 7 -33 -3 -7 -22
13 -10 14 -16 5 -22 -9 -6 -7 -12 8 -26 17 -14 23 -15 36 -4 9 7 18 12 20 11
12 -9 35 0 41 16 4 11 10 20 15 20 4 1 15 1 25 2 10 0 12 3 5 6 -7 2 -13 11
-13 19 0 8 -5 14 -12 14 -9 0 -9 3 0 12 8 8 15 8 26 -2 9 -7 23 -9 32 -6 16 6
15 8 -2 21 -14 10 -15 14 -5 15 8 0 23 -7 33 -17 15 -14 18 -14 18 -1 0 8 -18
28 -41 44 -26 18 -36 30 -28 33 8 2 21 12 30 23 16 18 49 16 49 -4 0 -5 10 -6
22 -3 16 6 20 4 15 -9 -3 -8 -2 -18 3 -21 12 -7 84 116 105 179 16 46 16 51 1
61 -23 17 -20 23 11 27 24 3 30 11 46 63 12 38 19 92 19 146 2 143 -43 208
-162 238 -30 8 -67 22 -81 32 -14 10 -45 25 -70 35 -24 9 -55 28 -69 40 -27
25 -209 110 -315 148 l-60 21 -6 50 c-3 28 -9 58 -14 68 -13 30 -62 49 -107
42 -37 -7 -42 -4 -80 37 -49 52 -78 97 -78 120 0 32 -23 67 -51 78 -25 11 -29
19 -35 72 -5 41 -14 69 -30 88 -16 19 -24 41 -24 66 0 66 -18 112 -50 129 -28
14 -36 32 -60 122 -13 50 -50 83 -94 83 -30 0 -33 4 -89 124 -32 69 -64 157
-73 196 -8 40 -30 102 -49 138 -21 40 -40 94 -46 132 -7 46 -19 78 -42 110
-29 41 -32 52 -33 125 -1 46 -8 95 -17 115 -8 19 -20 73 -27 120 -24 173 -85
377 -203 676 -88 225 -251 544 -326 640 -15 19 -21 41 -21 76 0 60 -18 92 -75
136 -36 28 -44 40 -48 75 -7 58 -43 157 -68 183 -17 18 -19 26 -10 42 17 32
13 64 -14 107 -13 22 -25 47 -25 56 0 9 -9 23 -21 30 -20 14 -20 15 15 63 19
27 37 63 40 81 5 24 16 39 41 54 30 18 35 25 35 58 0 21 -6 60 -13 88 -19 72
-4 120 48 154 85 55 110 100 130 233 10 62 22 104 44 141 16 29 35 74 40 99 6
26 25 71 42 100 18 29 46 78 62 108 17 30 51 87 77 125 26 39 69 111 97 160
151 269 215 381 231 400 10 11 29 38 44 60 14 22 51 79 82 127 74 113 92 158
101 243 4 39 11 78 16 87 20 37 59 62 59 38 0 -6 17 -45 38 -88 l37 -77 -3
-155 c-2 -93 -9 -175 -17 -205 -57 -204 -73 -453 -41 -637 17 -99 17 -123 6
-330 -7 -123 -15 -349 -17 -504 -6 -373 -2 -400 126 -749 29 -77 67 -162 86
-190 19 -27 59 -103 89 -168 77 -163 161 -302 210 -343 22 -19 61 -41 86 -48
36 -10 57 -27 105 -83 33 -38 98 -114 145 -167 193 -221 383 -457 475 -590 47
-68 174 -227 376 -471 276 -333 329 -403 409 -537 59 -97 234 -302 334 -391
55 -49 72 -72 111 -154 25 -53 56 -111 69 -127 12 -17 39 -65 60 -106 25 -52
54 -91 91 -125 l54 -50 -20 -59 c-19 -57 -20 -61 -4 -103 32 -83 68 -111 168
-128 32 -5 37 -10 37 -32 0 -15 8 -36 19 -47 22 -26 50 -76 95 -178 19 -43 39
-78 44 -78 5 0 13 -10 19 -23 9 -18 6 -25 -13 -40 -47 -35 -41 -148 11 -197
14 -13 25 -31 25 -40 0 -10 13 -44 30 -76 16 -32 30 -67 30 -77 0 -21 -25 -59
-87 -133 -41 -49 -53 -74 -35 -74 9 0 29 22 82 90 60 78 65 75 75 -39 l7 -76
-51 -100 c-84 -168 -128 -322 -161 -565 -21 -153 -23 -180 -13 -180 6 0 20 52
32 117 12 64 27 126 33 137 6 11 29 81 50 154 21 74 42 140 46 148 5 9 8 -23
8 -73 -1 -105 14 -151 53 -159 48 -11 53 -14 47 -31 -4 -9 -11 -76 -17 -148
-10 -120 -9 -138 10 -211 15 -59 21 -116 22 -210 1 -115 -1 -137 -25 -209 -31
-93 -41 -159 -32 -208 6 -31 14 -39 69 -66 34 -17 86 -35 116 -41 30 -6 56
-12 59 -14 11 -11 -94 -17 -126 -8 -37 12 -52 8 -36 -8 20 -20 258 -40 472
-39 133 0 164 3 169 15 3 8 24 22 47 32 87 39 261 182 326 268 94 124 209 357
247 501 39 144 38 335 -1 563 -37 214 -33 308 19 495 42 151 64 240 75 310 5
28 16 74 24 103 25 86 36 228 26 327 -21 216 -97 323 -252 355 -80 17 -140 42
-198 84 -98 70 -185 110 -255 118 -26 3 -30 7 -28 33 3 61 -4 72 -63 95 -88
32 -121 62 -126 115 -7 56 -41 102 -108 145 -42 27 -49 36 -44 54 11 31 8 46
-21 143 -29 97 -60 157 -110 212 -18 20 -51 72 -73 116 -41 82 -55 101 -111
147 -19 17 -43 54 -60 95 -41 99 -165 346 -216 433 -25 41 -58 97 -73 123 -15
27 -48 83 -74 125 -27 42 -48 80 -48 85 0 5 -23 47 -50 93 -28 45 -59 107 -69
136 -10 29 -26 67 -35 83 -9 17 -16 34 -16 38 0 22 -100 212 -157 300 -69 105
-109 154 -275 344 -59 67 -130 157 -159 200 -63 94 -184 240 -212 254 -19 11
-52 8 -89 -6 -15 -6 -18 -1 -18 28 0 20 -5 48 -12 62 -10 21 -18 25 -56 25
-44 0 -44 0 -38 30 5 25 -1 37 -32 72 -22 25 -32 43 -25 45 7 3 24 14 38 25
l27 21 -4 146 c-4 158 -15 197 -72 250 -29 27 -24 41 25 67 58 29 44 76 -35
116 -33 17 -37 23 -32 46 3 15 15 86 26 157 11 72 30 164 43 205 18 62 22 104
23 238 l2 162 39 64 c21 35 66 104 100 154 70 105 79 139 63 245 -8 52 -8 93
-1 137 10 61 13 66 74 122 90 80 127 175 127 328 1 107 22 245 43 287 11 20
17 56 17 93 0 33 4 60 8 60 5 0 14 12 20 26 13 28 64 94 73 94 9 0 162 -200
243 -319 52 -75 91 -147 118 -215 22 -55 55 -121 74 -145 19 -25 39 -62 45
-83 8 -32 14 -39 32 -36 17 2 23 12 27 38 l6 35 7 -34 c4 -18 7 -57 7 -86 0
-36 6 -60 18 -75 17 -21 19 -21 35 -5 23 22 21 51 -8 170 -13 55 -25 112 -25
127 0 15 -7 31 -15 35 -13 7 -13 17 -5 58 6 28 15 84 20 127 6 42 26 117 45
168 19 50 35 98 35 106 0 18 41 84 64 103 9 7 16 20 16 27 0 8 15 31 34 51 18
21 44 58 58 83 14 25 35 63 48 85 47 83 118 264 129 331 7 38 17 164 22 279 4
116 15 273 23 350 9 77 16 169 16 205 0 36 9 117 20 180 55 311 83 473 95 555
8 50 27 173 44 275 16 102 35 230 41 285 24 219 32 265 69 390 21 72 75 281
120 465 45 184 95 385 111 445 15 61 34 134 40 163 7 28 15 52 18 52 4 0 27
-21 52 -47 25 -27 70 -71 101 -99 30 -28 85 -96 122 -150 161 -236 195 -282
242 -329 51 -52 102 -75 163 -75 28 0 35 -6 56 -47 13 -27 34 -57 46 -68 12
-11 30 -36 40 -56 19 -37 92 -109 111 -109 14 0 79 -72 79 -88 0 -31 102 -221
141 -262 23 -25 65 -74 94 -110 63 -78 155 -165 216 -204 40 -25 48 -37 70
-100 21 -63 29 -73 64 -92 22 -11 61 -41 87 -66 29 -29 67 -54 104 -68 32 -11
75 -36 95 -55 48 -43 90 -65 125 -65 33 0 169 -126 222 -205 19 -27 44 -61 57
-75 12 -14 26 -36 30 -50 11 -36 85 -179 97 -186 5 -3 14 -1 21 4 9 8 12 -9
12 -71 0 -78 1 -82 22 -79 17 2 20 -1 16 -18 -3 -11 -1 -20 3 -20 17 0 32 15
37 35 3 13 5 9 6 -12 0 -18 4 -33 9 -33 4 0 8 -12 9 -27 6 -110 10 -128 22
-125 7 1 10 -2 7 -7 -3 -5 1 -22 9 -37 8 -16 15 -23 15 -15 0 8 3 11 6 8 4 -4
1 -13 -6 -22 -7 -8 -9 -23 -6 -32 6 -15 9 -15 16 -3 5 8 7 17 5 20 -1 3 4 12
13 19 14 13 15 13 10 -6 -4 -15 -2 -20 7 -17 12 5 52 -66 70 -124 3 -12 11
-19 17 -16 7 4 8 2 4 -5 -4 -6 -4 -17 1 -24 5 -7 18 -39 28 -72 24 -79 36
-105 47 -99 4 3 8 -1 8 -10 0 -8 5 -16 10 -18 6 -2 13 -17 15 -34 2 -17 13
-47 25 -65 l21 -34 -3 48 c-1 34 2 51 12 57 20 13 30 12 30 -1 0 -6 9 -23 20
-37 24 -29 20 -78 -8 -99 -9 -8 -11 -13 -4 -13 23 0 12 -23 -28 -57 -22 -19
-40 -41 -40 -49 0 -8 -16 -24 -35 -35 -40 -24 -65 -61 -46 -67 6 -2 11 -21 11
-43 0 -43 16 -52 29 -16 5 13 17 29 27 37 16 14 17 13 11 -4 -6 -15 -5 -16 6
-8 10 8 12 5 11 -15 0 -14 -7 -31 -15 -37 -18 -13 -14 -42 7 -50 24 -9 150 38
146 55 -15 63 7 155 35 145 8 -3 11 -1 8 4 -3 6 1 10 10 10 9 0 13 4 10 10 -3
6 1 7 9 4 10 -4 16 -1 16 7 0 10 3 10 12 1 10 -10 7 -16 -10 -27 -49 -35 -87
-165 -48 -165 68 0 273 133 407 263 29 29 37 45 42 89 10 81 8 189 -4 249 -22
105 -24 135 -16 229 11 125 0 151 -105 261 -138 142 -313 330 -321 345 -5 9 1
26 17 47 15 20 29 54 32 81 6 40 2 57 -21 107 -31 64 -45 75 -20 14 9 -20 14
-39 11 -42 -7 -7 -166 275 -166 293 1 5 17 -9 36 -31 l36 -40 -22 40 c-37 64
-69 93 -110 100 -21 4 -46 13 -57 20 -10 8 -34 15 -54 15 -35 0 -38 3 -89 93
-106 183 -120 233 -102 350 9 60 8 83 -5 135 -15 60 -18 64 -63 87 -28 14 -57
40 -74 65 -18 27 -42 48 -71 60 -41 18 -45 23 -60 77 -23 80 -82 220 -112 265
-21 30 -25 49 -24 99 0 54 -4 72 -35 126 -20 36 -50 73 -69 86 -18 12 -41 34
-50 49 -17 29 -113 100 -152 112 -27 9 -28 15 -7 60 10 20 14 44 10 59 -9 38
-53 85 -86 92 -36 8 -37 15 -5 43 18 16 25 32 25 60 0 40 -12 63 -69 128 -20
23 -55 64 -79 92 -23 28 -66 67 -95 86 -49 33 -125 95 -319 264 l-85 73 -57
231 c-67 271 -90 336 -202 563 -75 153 -96 184 -198 310 -125 153 -236 261
-333 327 -35 23 -63 47 -64 52 0 6 -2 47 -3 91 -2 74 -5 86 -44 155 -38 68
-54 101 -67 138 -3 8 -26 12 -66 12 l-62 0 -71 71 c-40 39 -78 74 -84 78 -10
6 -9 22 2 72 25 107 45 249 50 348 4 79 9 99 31 132 21 33 29 38 50 33 14 -3
25 -2 25 4 0 13 64 82 77 82 5 0 28 13 49 28 48 35 99 127 109 196 9 68 92
354 109 381 23 36 39 143 30 210 -4 33 -8 139 -9 235 -2 148 -5 187 -24 254
-23 80 -89 243 -142 350 -16 33 -29 66 -29 74 0 8 -6 12 -12 10 -8 -3 -40 41
-83 113 -55 94 -72 116 -83 107 -7 -6 -10 -18 -7 -27 4 -9 -11 4 -31 29 -21
25 -95 100 -164 167 -121 119 -125 122 -141 103 -15 -17 -18 -18 -29 -5 -7 8
-19 15 -28 15 -8 0 -35 12 -59 26 -43 25 -62 27 -48 5 3 -6 23 -18 42 -26 20
-9 33 -18 30 -22 -7 -7 -86 15 -102 29 -5 4 -26 8 -46 8 -21 0 -42 7 -49 15
-7 9 -33 29 -58 46 l-44 30 6 -26 c5 -19 3 -25 -5 -20 -6 4 -30 9 -52 10 -23
2 -67 10 -97 19 -43 12 -91 14 -238 11 -112 -2 -193 0 -210 6 -15 6 -47 12
-72 15 l-45 4 30 -24z m-421 -1689 c-3 -8 8 -16 28 -22 19 -6 38 -21 45 -35
12 -25 12 -25 -35 -30 -26 -3 -53 -9 -60 -13 -7 -5 -28 -40 -48 -79 -47 -93
-49 -164 -7 -238 15 -28 33 -50 40 -50 6 0 25 -29 41 -65 36 -76 72 -115 105
-115 14 0 30 -7 37 -15 28 -33 60 -1 60 60 0 13 8 29 18 34 9 6 11 11 5 11
-17 0 -16 15 4 57 16 34 17 35 25 13 6 -17 13 -21 32 -16 14 3 27 2 31 -4 3
-5 -5 -12 -19 -16 -25 -6 -30 -22 -11 -36 5 -4 2 -10 -8 -14 -9 -3 -17 -16
-17 -29 0 -12 -7 -37 -17 -55 -15 -31 -17 -32 -30 -15 -10 15 -13 15 -13 4 0
-8 5 -20 12 -27 9 -9 9 -12 0 -12 -7 0 -12 5 -12 10 0 6 -4 10 -10 10 -5 0
-10 -7 -10 -15 0 -20 -40 -19 -54 1 -10 13 -19 14 -49 6 -31 -9 -38 -8 -46 6
-8 13 -12 14 -25 3 -9 -7 -31 -15 -48 -16 -18 -2 -38 -3 -45 -4 -6 -1 -19 -9
-29 -18 -13 -13 -19 -14 -22 -5 -2 6 -11 12 -20 12 -11 0 -13 -3 -6 -8 8 -5 7
-16 -3 -39 -10 -26 -19 -33 -41 -33 -23 0 -30 -6 -42 -37 -19 -52 -21 -152 -4
-185 18 -36 18 -46 -3 -44 -14 1 -18 -7 -19 -33 0 -19 -5 -36 -11 -38 -7 -3
-10 -10 -7 -16 2 -7 -6 -17 -18 -22 -14 -6 -23 -19 -23 -32 0 -13 -3 -22 -7
-20 -4 1 -14 -7 -22 -18 -14 -17 -17 -18 -26 -5 -9 12 -10 10 -5 -7 4 -15 2
-23 -5 -23 -7 0 -10 -6 -7 -13 3 -9 -2 -13 -16 -12 -29 3 -42 -6 -26 -16 11
-7 10 -9 -3 -9 -19 0 -97 92 -100 118 -1 10 -2 28 -2 42 -1 17 -8 26 -26 30
-15 4 -24 13 -24 22 1 10 -4 14 -12 11 -8 -3 -14 1 -14 10 0 8 -6 17 -12 20
-10 3 -10 7 1 20 12 15 11 17 -3 17 -9 0 -16 7 -16 15 0 8 -4 15 -8 15 -7 0
-30 52 -33 75 0 6 -5 16 -11 23 -6 6 -7 12 -3 12 4 0 -1 12 -11 27 l-17 28 27
-18 c26 -18 27 -18 14 3 -7 11 -16 20 -20 20 -4 0 -10 16 -14 35 -7 41 -16 44
-40 13 l-16 -23 5 23 c4 17 1 22 -13 22 -21 0 -50 26 -49 43 0 9 2 8 6 0 2 -7
9 -13 14 -13 5 0 1 12 -10 28 -15 19 -19 38 -17 67 2 22 4 48 5 58 1 12 6 16
14 11 10 -6 10 -4 0 7 -17 17 -16 29 0 29 7 0 18 24 25 58 7 31 15 69 18 84 9
41 93 123 158 152 31 14 60 26 65 26 20 0 160 102 206 149 27 28 54 51 61 51
6 0 19 -9 29 -20 10 -11 30 -20 44 -20 21 0 29 -7 38 -31 14 -37 31 -34 57 10
18 31 14 60 -4 31 -11 -17 -13 0 -4 25 6 15 8 14 25 -1 18 -16 21 -15 66 9 27
14 49 26 50 26 1 1 0 -5 -3 -12z m-2970 -298 c5 -4 9 -20 9 -36 0 -15 2 -22 4
-15 7 18 20 15 26 -8 3 -10 0 -22 -7 -25 -8 -3 -8 -7 2 -11 17 -8 16 -115 -2
-140 -11 -14 -14 -15 -14 -4 2 37 -2 49 -17 44 -9 -4 -15 0 -15 10 0 9 -4 16
-10 16 -5 0 -7 7 -4 15 4 9 1 15 -7 15 -8 0 -21 22 -30 50 -14 40 -15 52 -4
67 7 9 10 23 8 31 -4 10 1 11 23 6 16 -4 33 -10 38 -15z m596 -4159 c0 -5 6
-7 14 -4 22 8 25 -7 17 -69 -4 -31 -4 -54 1 -51 4 3 8 12 8 20 0 8 5 12 10 9
6 -4 8 -14 5 -24 -3 -9 2 -26 10 -37 20 -26 19 -44 -2 -44 -11 0 -14 -3 -7 -8
15 -10 25 -42 14 -42 -5 0 -1 -15 10 -32 21 -37 24 -98 4 -98 -8 0 -12 -12
-12 -30 1 -16 5 -30 10 -30 4 0 8 -4 8 -10 0 -5 -7 -10 -16 -10 -14 0 -14 -3
-4 -15 7 -9 20 -13 28 -10 18 7 34 -3 26 -17 -4 -6 -10 -5 -15 3 -6 9 -6 -14
-2 -56 4 -38 6 -78 5 -87 -1 -10 -2 -30 -2 -45 0 -16 -1 -39 -2 -53 -1 -14 0
-41 1 -60 1 -19 3 -69 4 -112 1 -42 5 -80 9 -84 4 -4 5 -11 1 -17 -12 -19 -5
-187 8 -203 10 -13 10 -17 -1 -24 -11 -7 -11 -11 -1 -24 11 -13 11 -16 0 -16
-12 0 -12 -2 0 -9 8 -5 11 -16 8 -25 -3 -8 -2 -18 4 -22 6 -3 3 -11 -8 -19
-16 -12 -16 -18 -6 -57 7 -25 9 -54 6 -66 -3 -12 -1 -22 4 -22 10 0 9 -111 -1
-129 -4 -6 2 -24 13 -40 11 -15 19 -30 16 -32 -2 -3 -6 -28 -8 -57 -2 -29 -7
-55 -10 -59 -4 -3 -2 -15 4 -25 12 -22 14 -107 3 -140 -5 -15 -3 -20 7 -16 14
5 15 -19 6 -122 -2 -14 2 -28 7 -32 5 -3 11 -28 12 -56 2 -27 10 -62 19 -78 8
-16 15 -48 15 -70 0 -25 6 -47 15 -54 9 -7 14 -19 11 -26 -3 -7 2 -15 10 -18
8 -3 14 -14 14 -25 0 -11 6 -22 13 -24 16 -7 -13 -29 -30 -22 -7 2 -13 -3 -13
-11 0 -12 7 -14 30 -9 24 5 29 4 24 -9 -3 -8 -10 -14 -16 -13 -5 1 -13 -5 -17
-13 -5 -8 -13 -25 -19 -37 -9 -17 -8 -22 4 -27 8 -3 19 -17 24 -32 11 -29 33
-28 39 2 5 32 23 46 48 39 13 -3 23 -1 23 4 0 5 15 16 33 24 52 25 92 77 115
148 34 102 28 121 -26 91 -36 -20 -152 -127 -152 -141 0 -5 -6 -11 -14 -14
-47 -18 6 92 64 134 22 16 40 32 40 37 0 4 21 18 48 31 26 12 55 27 64 32 27
14 61 10 83 -9 17 -14 20 -26 17 -65 -3 -36 -1 -47 9 -45 8 2 14 -4 14 -12 0
-8 -6 -15 -14 -15 -8 0 -15 -11 -15 -25 -1 -14 -11 -35 -24 -48 -12 -12 -22
-25 -22 -29 -1 -5 -21 -30 -45 -57 -25 -27 -47 -58 -51 -68 -3 -10 -9 -18 -14
-18 -9 0 -140 -126 -140 -135 0 -4 -22 -29 -49 -57 -27 -28 -52 -62 -56 -77
-12 -49 -46 -110 -66 -116 -15 -5 -18 -12 -13 -32 5 -18 3 -24 -5 -19 -6 4
-11 2 -11 -3 0 -6 16 -11 36 -11 42 0 37 -14 -13 -35 -57 -24 -177 -19 -269
11 -168 55 -391 149 -633 267 -83 41 -161 110 -144 128 10 10 20 9 53 -4 39
-15 51 -12 29 10 -14 14 17 78 47 94 13 6 21 16 18 21 -3 4 0 8 5 8 6 0 11 7
11 15 0 8 5 15 11 15 6 0 9 7 5 15 -3 8 1 21 9 28 8 9 10 19 4 28 -14 22 -11
27 17 21 23 -4 25 -3 16 13 -8 15 -5 23 14 38 13 10 24 24 24 30 0 8 -4 7 -9
-2 -5 -8 -16 -11 -24 -8 -19 7 -42 47 -27 47 5 0 10 -7 10 -15 0 -22 9 -18 41
17 28 32 28 33 7 41 -14 5 -24 3 -30 -5 -14 -22 -9 38 5 66 8 14 16 24 18 22
2 -3 15 4 29 15 20 15 22 21 11 28 -8 5 -11 16 -8 25 8 21 27 21 27 0 0 -8 4
-12 10 -9 5 3 7 19 4 35 -6 27 -5 29 22 24 15 -3 31 -7 36 -10 4 -3 5 2 2 10
-3 9 -12 16 -20 16 -8 0 -14 9 -14 20 0 13 5 18 15 14 17 -7 21 11 5 21 -17
10 -11 23 8 19 13 -4 18 2 19 23 5 55 3 76 -7 89 -8 8 -8 14 0 19 5 3 10 0 10
-8 0 -8 7 -18 16 -21 28 -11 37 -7 23 10 -7 9 -14 25 -16 37 -2 11 -8 26 -14
33 -7 9 -5 18 10 33 12 12 21 25 21 30 0 5 6 11 13 14 9 3 9 7 -2 20 -11 14
-11 17 0 17 10 1 9 4 -3 14 -20 15 -24 36 -7 36 7 0 9 11 5 30 -3 20 -2 29 4
25 16 -10 23 21 10 44 -9 17 -8 21 5 21 11 0 15 10 15 35 0 19 4 35 9 35 6 0
7 16 4 35 -3 19 -2 42 2 52 9 20 12 33 20 83 3 19 8 44 11 54 4 11 8 40 10 64
2 29 10 51 24 64 16 15 20 27 15 51 -5 24 -4 28 4 17 14 -20 15 4 2 29 -7 12
-5 32 4 62 7 24 14 40 14 36 1 -5 5 -6 10 -2 6 3 5 22 -2 48 -17 55 -12 80 14
72 20 -7 27 9 9 20 -24 15 -9 50 21 47 3 -1 4 11 1 25 -3 17 1 29 12 35 10 6
16 22 16 43 0 19 5 37 10 40 6 3 10 17 10 30 0 13 5 27 10 30 6 3 10 30 10 60
0 37 5 59 17 70 9 9 16 31 16 48 0 18 7 41 16 52 14 17 21 75 11 95 -1 3 -4
15 -5 28 -2 15 3 21 13 20 14 -3 20 20 24 94 1 23 3 25 15 12 8 -8 20 -14 26
-14 8 0 7 4 -1 12 -18 18 -15 49 3 42 17 -7 22 31 5 41 -6 4 -8 10 -5 15 3 5
-3 11 -12 13 -14 4 -13 5 5 6 12 0 22 -3 22 -9z m-445 -327 c-9 -155 -25 -302
-40 -383 -92 -479 -121 -589 -235 -895 -92 -248 -102 -280 -130 -405 -55 -244
-104 -363 -233 -574 -32 -52 -71 -131 -87 -175 -29 -82 -118 -256 -127 -248
-5 6 18 55 57 122 16 28 39 79 51 115 27 81 70 168 119 240 89 132 144 272
205 525 36 149 74 268 147 455 25 63 55 144 66 180 71 219 174 730 186 915 9
138 18 225 22 225 3 0 2 -44 -1 -97z m1907 -1846 c-5 -7 -10 -31 -11 -54 -1
-46 11 -54 51 -32 12 7 44 12 72 13 28 1 56 5 63 9 6 4 18 4 26 1 9 -3 24 -1
35 5 11 6 68 13 128 16 60 3 121 7 136 11 14 3 29 1 32 -4 6 -11 -70 -36 -84
-27 -5 3 -11 1 -15 -5 -3 -5 -16 -10 -28 -10 -12 0 -32 -11 -44 -24 -15 -15
-42 -26 -80 -33 -32 -6 -67 -14 -77 -18 -14 -6 -17 -5 -12 3 4 7 3 12 -3 12
-5 0 -13 -4 -16 -10 -3 -5 -16 -10 -28 -9 -20 1 -20 2 3 9 17 5 19 8 7 9 -9 1
-27 -5 -38 -11 -17 -11 -23 -10 -26 0 -4 9 -13 8 -36 -7 -43 -25 -95 -35 -197
-36 -47 -1 -112 -9 -145 -19 -115 -33 -160 -49 -186 -67 -14 -10 -37 -21 -52
-24 -15 -4 -27 -12 -27 -17 0 -6 -6 -8 -14 -5 -8 3 -22 -3 -32 -14 -21 -24
-82 -54 -91 -46 -7 8 40 70 86 114 31 29 81 62 168 109 56 31 152 62 194 63
25 0 59 6 75 12 16 7 35 11 42 10 6 -1 12 5 12 13 0 8 9 18 20 21 11 4 18 11
15 16 -8 11 12 31 50 52 26 13 30 13 33 1 2 -8 -1 -20 -6 -27z m-477 -55 c-11
-2 -32 -14 -47 -27 -18 -16 -35 -21 -50 -18 -13 3 -20 2 -16 -2 4 -4 1 -17 -7
-29 -8 -11 -15 -28 -15 -37 0 -12 -6 -16 -20 -12 -16 4 -23 -1 -33 -26 -9 -24
-17 -31 -37 -31 -14 0 -31 -5 -36 -10 -7 -7 -17 0 -32 20 -23 30 -18 41 7 18
11 -11 12 -8 7 13 -3 16 0 38 8 53 13 25 14 25 19 6 5 -20 27 -29 27 -10 0 6
-4 10 -9 10 -5 0 -8 8 -7 18 2 11 13 18 35 20 23 2 31 8 27 17 -3 9 0 12 10 8
10 -4 17 2 21 15 6 24 32 37 46 23 11 -11 47 4 60 25 6 11 14 8 35 -14 25 -25
26 -27 7 -30z m6210 -451 c7 -13 64 -41 82 -41 7 0 13 -11 13 -25 0 -30 34
-119 61 -156 15 -22 17 -33 9 -54 -7 -19 -7 -40 1 -68 10 -39 10 -42 -18 -65
-63 -52 -83 -72 -83 -86 0 -16 -38 -42 -47 -32 -3 3 9 19 26 36 29 29 31 37
31 98 -1 77 -26 149 -80 227 -38 54 -70 119 -70 141 0 25 61 46 75 25z m228
-96 c9 -20 17 -42 17 -50 0 -8 5 -15 10 -15 6 0 10 -9 10 -19 0 -11 5 -23 11
-26 19 -12 30 -56 18 -71 -30 -36 -89 1 -89 56 0 15 -7 35 -15 46 -17 22 -19
67 -5 95 15 27 24 24 43 -16z m-7629 -8753 c58 -17 59 -18 63 -57 2 -21 9 -45
15 -53 19 -23 -11 -33 -45 -15 -21 11 -28 11 -25 2 5 -16 21 -24 78 -40 56
-16 55 -15 41 -33 -10 -12 -16 -12 -39 0 -15 8 -37 14 -48 14 -16 0 -28 14
-48 53 -14 30 -26 61 -26 70 0 18 -16 31 -23 20 -2 -5 -2 -2 0 5 1 7 -2 22 -7
33 -13 23 -10 23 64 1z"/>
<path d="M5641 23116 c-6 -8 -25 -41 -41 -74 -24 -49 -28 -69 -24 -113 2 -30
4 -75 4 -100 -1 -25 5 -59 11 -75 16 -37 20 -59 19 -109 0 -22 5 -61 12 -87 9
-38 15 -47 32 -45 14 1 25 -8 34 -28 34 -70 59 -80 97 -39 18 19 25 22 25 12
0 -9 7 -21 15 -28 19 -16 20 -21 -14 117 -64 257 -91 440 -73 504 8 29 6 39
-8 57 -21 25 -71 30 -89 8z"/>
<path d="M8230 22760 c0 -5 -7 -10 -15 -10 -8 0 -15 -6 -15 -12 0 -7 -6 -24
-13 -38 -7 -14 -19 -44 -26 -67 -9 -26 -18 -40 -26 -36 -8 3 -13 -4 -13 -19 0
-13 -3 -34 -7 -48 -7 -26 -8 -70 -1 -78 2 -2 27 30 55 71 28 42 55 78 61 82
14 9 100 141 100 154 0 6 -4 11 -10 11 -5 0 -10 -6 -10 -14 0 -18 -27 -28 -36
-14 -5 8 -10 5 -14 -8 -4 -10 -2 -22 4 -26 7 -5 4 -8 -6 -8 -17 0 -23 15 -20
53 1 9 0 17 -3 17 -3 0 -5 -4 -5 -10z"/>
<path d="M5443 22647 c-22 -24 -49 -57 -59 -73 -10 -16 -35 -49 -55 -74 -61
-75 -70 -110 -32 -133 13 -8 19 -47 6 -47 -3 0 -15 8 -26 18 -18 16 -19 16
-16 -3 2 -11 0 -25 -4 -32 -4 -7 0 -14 11 -17 13 -4 23 -23 31 -60 6 -29 23
-68 36 -87 14 -18 25 -44 25 -58 0 -14 5 -33 10 -41 9 -13 13 -12 26 5 22 29
12 86 -26 146 -20 30 -35 68 -38 95 -5 45 14 150 30 169 4 5 8 20 8 34 0 16
19 42 60 83 33 32 65 58 71 58 11 0 3 38 -11 53 -3 4 -25 -12 -47 -36z"/>
<path d="M7420 22595 c-94 -28 -135 -44 -114 -44 12 -1 24 -8 28 -16 3 -8 14
-15 25 -15 13 0 27 -12 36 -30 18 -35 42 -38 79 -9 31 25 33 42 6 69 -11 11
-16 20 -12 20 4 0 8 9 9 20 2 23 3 23 -57 5z"/>
<path d="M8960 5015 c0 -3 10 -19 22 -35 17 -24 19 -32 8 -45 -7 -8 -19 -15
-26 -15 -8 0 -14 -4 -14 -9 0 -5 -10 -13 -22 -17 -13 -3 -30 -12 -38 -19 -34
-28 -58 -24 -91 13 -31 37 -32 35 -13 -27 5 -17 -2 -20 -63 -29 -123 -20 -147
-20 -161 -3 -10 14 -12 14 -10 1 3 -12 -13 -15 -90 -16 -51 0 -95 -4 -99 -7
-7 -8 51 -10 269 -7 147 1 161 3 205 26 140 73 193 109 193 131 0 5 -13 21
-28 36 -27 26 -42 33 -42 22z"/>
</g>
</svg>
